<svg xmlns="http://www.w3.org/2000/svg" xmlns:xlink="http://www.w3.org/1999/xlink" width="80" zoomAndPan="magnify" viewBox="0 0 60 60" height="80" preserveAspectRatio="xMidYMid meet" version="1.0"><defs><g/><clipPath id="ed38c3e92b"><rect x="0" width="60" y="0" height="56"/></clipPath></defs><g transform="matrix(1, 0, 0, 1, 0, 4)"><g clip-path="url(#ed38c3e92b)"><g fill="#000000" fill-opacity="1"><g transform="translate(-0.634357, 44.899763)"><g><path d="M 36.359375 0 L 34.453125 -23.96875 L 34.203125 -23.96875 L 25.921875 -0.25 L 20.4375 -0.25 L 12.15625 -23.96875 L 11.90625 -23.96875 L 10 0 L 0.78125 0 L 4.40625 -40.421875 L 14.203125 -40.421875 L 23.171875 -17.09375 L 32.140625 -40.421875 L 41.9375 -40.421875 L 45.5625 0 Z M 36.359375 0 "/></g></g></g><g fill="#ff5757" fill-opacity="1"><g transform="translate(45.72861, 44.899763)"><g><path d="M 8.53125 -10.484375 C 10.09375 -10.484375 11.421875 -9.9375 12.515625 -8.84375 C 13.609375 -7.75 14.15625 -6.414062 14.15625 -4.84375 C 14.15625 -3.3125 13.609375 -2 12.515625 -0.90625 C 11.421875 0.1875 10.09375 0.734375 8.53125 0.734375 C 6.988281 0.734375 5.671875 0.1875 4.578125 -0.90625 C 3.484375 -2 2.9375 -3.3125 2.9375 -4.84375 C 2.9375 -6.414062 3.484375 -7.75 4.578125 -8.84375 C 5.671875 -9.9375 6.988281 -10.484375 8.53125 -10.484375 Z M 8.53125 -10.484375 "/></g></g></g></g></g></svg>